<?xml version="1.0" encoding="UTF-8" standalone="no"?>
<!DOCTYPE svg PUBLIC "-//W3C//DTD SVG 1.1//EN" "http://www.w3.org/Graphics/SVG/1.1/DTD/svg11.dtd">
<svg width="100%" height="100%" viewBox="0 0 500 500" version="1.1" xmlns="http://www.w3.org/2000/svg" xmlns:xlink="http://www.w3.org/1999/xlink" xml:space="preserve" xmlns:serif="http://www.serif.com/" style="fill-rule:evenodd;clip-rule:evenodd;stroke-linejoin:round;stroke-miterlimit:1.41421;">
    <g transform="matrix(0.350157,0,0,0.347667,140.48,217.694)">
        <path d="M1000,613C1000,640 978,661 951,661L849,661L849,764C849,790 827,812 800,812C774,812 752,790 752,764L752,661L650,661C623,661 601,640 601,613C601,586 623,565 650,565L752,565L752,462C752,436 774,414 800,414C827,414 849,436 849,462L849,565L951,565C978,565 1000,586 1000,613Z" style="fill:white;fill-rule:nonzero;"/>
    </g>
    <path d="M380.084,492.169L123,492.169L107,500L0,173.494L363.5,0L410,140.964L500,140.964L499,492.169L466.083,494.169C466.642,492.822 466.949,491.368 466.949,489.861L466.949,476.813L486.003,476.813C493.165,476.812 499,456.502 499,449.674C499,442.846 494.545,395.09 487.383,395.09L466.38,395.09L466,181.325L142,181.325L142,451.807L347.365,455.807C347.647,457.329 347.225,459.438 348.042,461.721C350.322,468.094 354.457,475.813 359.167,475.813L379.221,475.813L379.221,487.861C379.221,489.368 379.528,490.822 380.084,492.169ZM380.724,397.307L174.5,399.855L238,336.145L273.5,365.663L347.5,246.386L357.5,292.169L369.5,285.542L380.724,397.307ZM43.5,195.783L108.5,165.06L108.5,393.976L43.5,195.783ZM174.5,257.229C174.5,236.145 189,219.277 206.5,219.277C224,219.277 238,236.145 238,257.229C238,278.916 224,295.783 206.5,295.783C189,295.783 174.5,278.916 174.5,257.229ZM374,140.964L345,52.41L159,140.964L374,140.964Z" style="fill:white;"/>
</svg>
