<?xml version="1.0" encoding="UTF-8" standalone="no"?>
<!DOCTYPE svg PUBLIC "-//W3C//DTD SVG 1.1//EN" "http://www.w3.org/Graphics/SVG/1.1/DTD/svg11.dtd">
<svg width="100%" height="100%" viewBox="0 0 128 128" version="1.1" xmlns="http://www.w3.org/2000/svg" xmlns:xlink="http://www.w3.org/1999/xlink" xml:space="preserve" xmlns:serif="http://www.serif.com/" style="fill-rule:evenodd;clip-rule:evenodd;stroke-linejoin:round;stroke-miterlimit:1.41421;">
    <g transform="matrix(0.128,0,0,0.128,0,10)">
        <path d="M1000,234L820,234L727,0L0,288L214,830L246,817L1000,817L1000,234ZM748,234L318,234L690,87L748,234ZM87,325L217,274L217,654L87,325ZM932,750L284,750L284,301L932,301L932,750ZM867,687L349,687L476,558L547,607L695,409L755,485L779,474L867,687ZM349,427C349,392 378,364 413,364C448,364 476,392 476,427C476,463 448,491 413,491C378,491 349,463 349,427Z" style="fill-rule:nonzero;"/>
    </g>
</svg>
