<?xml version="1.0" encoding="UTF-8" standalone="no"?>
<!DOCTYPE svg PUBLIC "-//W3C//DTD SVG 1.1//EN" "http://www.w3.org/Graphics/SVG/1.1/DTD/svg11.dtd">
<svg width="100%" height="100%" viewBox="0 0 108 108" version="1.1" xmlns="http://www.w3.org/2000/svg" xmlns:xlink="http://www.w3.org/1999/xlink" xml:space="preserve" xmlns:serif="http://www.serif.com/" style="fill-rule:evenodd;clip-rule:evenodd;stroke-linejoin:round;stroke-miterlimit:1.41421;">
    <g transform="matrix(0.112735,0,0,0.143783,-2.84217e-14,-2.66777e-14)">
        <path d="M397,384L294,292L173,506L609.406,500.32L667.816,451.065C667.816,440.065 686.714,425.992 665.271,380.435L583,244L397,384ZM627.743,693.729C627.743,693.729 590.078,628.581 579.296,622L574.439,622L129,622L129,129L829,129L849.369,455.133C879.369,467.133 914.979,527.109 914.979,561.109C914.979,561.109 909.975,623.056 900.107,643.651C885.019,675.139 824.452,750.036 824.452,750.036L891,751.134C943.346,749.641 956.49,726.212 958,688.961L958,108C958,48 910,0 850,0L108,0C48,0 0,48 0,108L0,642C0,702 48,751 108,751L669.296,751L627.743,693.729Z" style="fill-rule:nonzero;"/>
    </g>
    <g transform="matrix(0.0638593,0,0,0.077616,51.6973,49.0119)">
        <path d="M499,239C396,239 313,323 313,426C313,529 499,760 499,760C499,760 686,529 686,426C686,323 603,239 499,239ZM500,500C455,500 420,464 420,420C420,375 455,340 500,340C544,340 579,375 579,420C579,464 544,500 500,500Z" style="fill-rule:nonzero;"/>
    </g>
</svg>
