<?xml version="1.0" encoding="UTF-8" standalone="no"?>
<!DOCTYPE svg PUBLIC "-//W3C//DTD SVG 1.1//EN" "http://www.w3.org/Graphics/SVG/1.1/DTD/svg11.dtd">
<svg width="100%" height="100%" viewBox="0 0 108 108" version="1.1" xmlns="http://www.w3.org/2000/svg" xmlns:xlink="http://www.w3.org/1999/xlink" xml:space="preserve" xmlns:serif="http://www.serif.com/" style="fill-rule:evenodd;clip-rule:evenodd;stroke-linejoin:round;stroke-miterlimit:1.41421;">
    <g transform="matrix(0.112735,0,0,0.143783,-2.84217e-14,-2.66777e-14)">
        <path d="M397,384L294,292L173,506L687.82,505.241L738.322,462.678C738.322,451.678 709.264,423.608 687.82,378.051L583,244L397,384ZM716.447,693.729C716.447,693.729 678.781,628.581 668,622L663.142,622L129,622L129,129L829,129L829,456.096C859,468.096 894.609,528.073 894.609,562.073C894.609,562.073 889.606,624.019 879.738,644.615C864.65,676.103 804.082,751 804.082,751L891,751.134C943.346,749.641 956.49,726.212 958,688.961L958,108C958,48 910,0 850,0L108,0C48,0 0,48 0,108L0,642C0,702 48,751 108,751L758,751L716.447,693.729Z" style="fill-rule:nonzero;"/>
    </g>
    <g transform="matrix(0.0559305,0,0,0.0770853,60.035,49.3958)">
        <path d="M499,239C396,239 313,323 313,426C313,529 499,760 499,760C499,760 686,529 686,426C686,323 603,239 499,239ZM500,500C455,500 420,464 420,420C420,375 455,340 500,340C544,340 579,375 579,420C579,464 544,500 500,500Z" style="fill-rule:nonzero;"/>
    </g>
</svg>
